#!OML:ASF H:\LiuWeirdWalks\Patient Classification 1\Patient 1\Session 1\male.ASF
:FULLY-SPECIFIED
:DEGREES
1185
root 1.75375 18.0593 36.5423 4.72218 9.47579 6.11763
lowerback 2.81801 3.17915 -3.725
upperback -2.59052 3.98573 -2.32275
thorax -4.34597 2.05929 -0.58372
lowerneck -15.5591 -3.29216 -1.26072
upperneck 24.6134 -4.07375 -0.686069
head 10.4661 -2.04767 -0.576974
rclavicle 1.7415e-014 1.81143e-014
rhumerus -44.4807 -17.6808 -74.4317
rradius 31.0792
rwrist -6.46157
rhand -17.0213 -2.35527
rfingers 7.12502
rthumb 9.21478 -32.1339
lclavicle 1.7415e-014 1.81143e-014
lhumerus -41.5268 -6.88776 86.9147
lradius 28.6063
lwrist 9.55626
lhand -11.7238 -2.73722
lfingers 7.12502
lthumb 14.3231 26.7487
rfemur -26.4387 -4.01076 13.1162
rtibia 29.2151
rfoot 1.83908 -15.2896
rtoes -6.8955
lfemur 13.2483 -8.4595 -22.6854
ltibia 17.5982
lfoot 6.48652 -1.65191
ltoes -23.8269
1186
root 1.71693 18.0707 36.6481 4.72041 9.66495 6.02075
lowerback 2.78954 2.83723 -3.99704
upperback -2.68482 3.52275 -2.07381
thorax -4.45157 1.84333 -0.146367
lowerneck -15.4363 -2.99643 -0.921576
upperneck 24.6746 -3.6532 -1.04865
head 10.448 -1.86748 -0.704002
rclavicle 4.08681e-014 -1.90336e-014
rhumerus -44.2393 -16.8101 -74.6968
rradius 31.2508
rwrist -6.60434
rhand -17.0277 -2.39743
rfingers 7.12502
rthumb 9.20866 -32.1763
lclavicle 4.08681e-014 -1.90336e-014
lhumerus -41.8235 -6.23356 86.8624
lradius 28.729
lwrist 9.01961
lhand -11.7564 -3.34277
lfingers 7.12502
lthumb 14.2917 26.1454
rfemur -26.1087 -3.98526 13.3794
rtibia 29.3342
rfoot 1.73176 -15.4747
rtoes -6.30752
lfemur 12.7415 -8.58266 -22.3552
ltibia 18.6794
lfoot 7.33987 -2.15448
ltoes -24.4383
1187
root 1.68063 18.0812 36.7522 4.70764 9.89124 5.92242
lowerback 2.80825 2.60731 -4.06932
upperback -2.75292 3.2142 -1.92025
thorax -4.53698 1.69652 0.0706734
lowerneck -15.3919 -2.84473 -0.748506
upperneck 24.755 -3.43325 -1.2476
head 10.4613 -1.77442 -0.774417
rclavicle 9.39258e-015 -1.13307e-014
rhumerus -44.0875 -16.3283 -74.8177
rradius 31.4753
rwrist -6.79739
rhand -17.0646 -2.42772
rfingers 7.12502
rthumb 9.17296 -32.2082
lclavicle 9.39258e-015 -1.13307e-014
lhumerus -41.9978 -5.99268 86.9382
lradius 28.8675
lwrist 8.61161
lhand -11.8185 -3.83595
lfingers 7.12502
lthumb 14.2319 25.6564
rfemur -25.7631 -4.02332 13.6441
rtibia 29.4453
rfoot 1.6413 -15.6289
rtoes -5.74022
lfemur 12.2118 -8.69414 -22.0201
ltibia 19.7927
lfoot 8.24247 -2.63518
ltoes -24.997
1188
root 1.64658 18.0912 36.8549 4.69919 10.1295 5.8057
lowerback 2.81023 2.38046 -4.10676
upperback -2.80595 2.91354 -1.75628
thorax -4.59362 1.55248 0.2806
lowerneck -15.3937 -2.70318 -0.584596
upperneck 24.8247 -3.22111 -1.45906
head 10.4804 -1.68733 -0.849674
rclavicle -3.42065e-014 -6.16232e-015
rhumerus -43.9158 -15.8684 -74.9031
rradius 31.7152
rwrist -6.99553
rhand -17.0885 -2.46533
rfingers 7.12502
rthumb 9.14997 -32.2468
lclavicle -3.42065e-014 -6.16232e-015
lhumerus -42.1259 -5.77165 87.054
lradius 29.0384
lwrist 8.33955
lhand -11.928 -4.21757
lfingers 7.12502
lthumb 14.1264 25.2822
rfemur -25.4217 -4.1339 13.9318
rtibia 29.5422
rfoot 1.57769 -15.7148
rtoes -5.18622
lfemur 11.6443 -8.77934 -21.6719
ltibia 20.9432
lfoot 9.18724 -3.07196
ltoes -25.5499
1189
root 1.61308 18.1011 36.9558 4.70121 10.3907 5.66976
lowerback 2.79512 2.11389 -4.20476
upperback -2.84582 2.56052 -1.53601
thorax -4.62804 1.38517 0.587657
lowerneck -15.4566 -2.52147 -0.372634
upperneck 24.8854 -2.94464 -1.7452
head 10.5074 -1.57548 -0.952053
rclavicle 2.26739e-014 -1.35174e-014
rhumerus -43.6669 -15.2899 -74.997
rradius 31.9464
rwrist -7.23934
rhand -17.0997 -2.51033
rfingers 7.12502
rthumb 9.13918 -32.2923
lclavicle 2.26739e-014 -1.35174e-014
lhumerus -42.2163 -5.40619 87.1667
lradius 29.2486
lwrist 8.17504
lhand -12.019 -4.50047
lfingers 7.12502
lthumb 14.0387 25.0054
rfemur -25.0819 -4.3017 14.246
rtibia 29.6005
rfoot 1.54949 -15.7619
rtoes -4.65592
lfemur 11.0066 -8.83823 -21.2952
ltibia 22.1653
lfoot 10.1404 -3.46106
ltoes -26.1555
1190
root 1.58057 18.111 37.0547 4.71524 10.6593 5.52593
lowerback 2.78137 2.06141 -3.94733
upperback -2.85377 2.50544 -1.49094
thorax -4.61559 1.35016 0.495557
lowerneck -15.6075 -2.58671 -0.439117
upperneck 24.9549 -3.01734 -1.74557
head 10.5629 -1.61494 -0.954563
rclavicle 5.60945e-014 -2.38542e-015
rhumerus -43.5811 -15.3618 -74.8646
rradius 32.2438
rwrist -7.52508
rhand -17.129 -2.53744
rfingers 7.12502
rthumb 9.11089 -32.3207
lclavicle 5.60945e-014 -2.38542e-015
lhumerus -42.1206 -5.75476 87.4856
lradius 29.4073
lwrist 8.11566
lhand -12.1494 -4.77715
lfingers 7.12502
lthumb 13.913 24.7374
rfemur -24.7471 -4.51448 14.5732
rtibia 29.6193
rfoot 1.54613 -15.7724
rtoes -4.15476
lfemur 10.3072 -8.86638 -20.9073
ltibia 23.4567
lfoot 11.0745 -3.79283
ltoes -26.7539
1191
root 1.54961 18.1218 37.1483 4.74812 10.9276 5.28771
lowerback 2.76115 2.01552 -3.58044
upperback -2.87501 2.4654 -1.42023
thorax -4.61033 1.3197 0.367713
lowerneck -15.7506 -2.6585 -0.512317
upperneck 25.0034 -3.09883 -1.74076
head 10.6095 -1.65847 -0.954956
rclavicle -1.36851e-014 7.7526e-015
rhumerus -43.484 -15.4211 -74.7184
rradius 32.5381
rwrist -7.85279
rhand -17.1614 -2.59367
rfingers 7.12502
rthumb 9.07959 -32.3782
lclavicle -1.36851e-014 7.7526e-015
lhumerus -41.9975 -6.10317 87.8222
lradius 29.5625
lwrist 8.08154
lhand -12.2755 -5.01932
lfingers 7.12502
lthumb 13.7915 24.5035
rfemur -24.4496 -4.74645 15.0072
rtibia 29.595
rfoot 1.56581 -15.7567
rtoes -3.72211
lfemur 9.50942 -8.86087 -20.4129
ltibia 24.8254
lfoot 11.98 -4.06506
ltoes -27.7178
1192
root 1.51946 18.1323 37.2403 4.7947 11.1776 5.06924
lowerback 2.72998 1.97731 -3.2561
upperback -2.88889 2.43446 -1.34113
thorax -4.59433 1.29508 0.27199
lowerneck -15.934 -2.73396 -0.598422
upperneck 25.0513 -3.18257 -1.73171
head 10.6641 -1.70373 -0.952864
rclavicle -2.65564e-014 6.36111e-015
rhumerus -43.3589 -15.4606 -74.5626
rradius 32.8212
rwrist -8.20933
rhand -17.2025 -2.65626
rfingers 7.12502
rthumb 9.03989 -32.4426
lclavicle -2.65564e-014 6.36111e-015
lhumerus -41.8331 -6.44563 88.1825
lradius 29.7113
lwrist 8.09613
lhand -12.3903 -5.196
lfingers 7.12502
lthumb 13.6808 24.3343
rfemur -24.1627 -4.97116 15.4196
rtibia 29.5443
rfoot 1.57007 -15.7268
rtoes -3.37859
lfemur 8.6691 -8.82163 -19.9443
ltibia 26.2502
lfoot 12.8416 -4.27778
ltoes -28.4584
1193
root 1.49091 18.1427 37.327 4.85582 11.3963 4.87679
lowerback 2.72972 1.9587 -2.95108
upperback -2.93243 2.4265 -1.26582
thorax -4.6286 1.2831 0.179337
lowerneck -16.0362 -2.82303 -0.716508
upperneck 25.0826 -3.28392 -1.69749
head 10.6981 -1.75693 -0.937178
rclavicle -3.93221e-014 1.53064e-014
rhumerus -43.279 -15.4984 -74.3677
rradius 33.1046
rwrist -8.56878
rhand -17.2528 -2.73974
rfingers 7.12502
rthumb 8.99136 -32.5281
lclavicle -3.93221e-014 1.53064e-014
lhumerus -41.6908 -6.81075 88.5788
lradius 29.8673
lwrist 8.16985
lhand -12.4803 -5.27825
lfingers 7.12502
lthumb 13.5941 24.2579
rfemur -23.9065 -5.16675 15.7976
rtibia 29.4807
rfoot 1.53053 -15.7095
rtoes -3.06529
lfemur 7.78876 -8.74342 -19.514
ltibia 27.7107
lfoot 13.687 -4.44749
ltoes -28.8843
1194
root 1.46317 18.1526 37.4131 4.91975 11.5739 4.74237
lowerback 2.71044 1.94579 -2.73654
upperback -2.98245 2.42233 -1.19463
thorax -4.66302 1.27586 0.133016
lowerneck -16.0641 -2.90315 -0.823459
upperneck 25.0889 -3.37644 -1.66338
head 10.7083 -1.8051 -0.920431
rclavicle -5.1156e-015 -4.37326e-015
rhumerus -43.2202 -15.5055 -74.1618
rradius 33.375
rwrist -8.87142
rhand -17.2862 -2.84821
rfingers 7.12502
rthumb 8.95922 -32.638
lclavicle -5.1156e-015 -4.37326e-015
lhumerus -41.5658 -7.15784 88.9806
lradius 30.0625
lwrist 8.36705
lhand -12.4545 -5.11033
lfingers 7.12502
lthumb 13.619 24.4242
rfemur -23.6615 -5.30651 16.1034
rtibia 29.4391
rfoot 1.41913 -15.7176
rtoes -2.80552
lfemur 6.92723 -8.62169 -19.1606
ltibia 29.1633
lfoot 14.5405 -4.57525
ltoes -28.8426
1195
root 1.436 18.162 37.4987 4.98603 11.7112 4.69314
lowerback 2.68079 1.93512 -2.65082
upperback -3.02958 2.4151 -1.12962
thorax -4.69408 1.27122 0.152726
lowerneck -16.0488 -2.9748 -0.931034
upperneck 25.0859 -3.45975 -1.62049
head 10.7071 -1.84808 -0.898207
rclavicle 1.09891e-014 6.16232e-015
rhumerus -43.1611 -15.4658 -73.9617
rradius 33.6307
rwrist -9.17778
rhand -17.3524 -2.93616
rfingers 7.12502
rthumb 8.89532 -32.7287
lclavicle 1.09891e-014 6.16232e-015
lhumerus -41.445 -7.47465 89.3823
lradius 30.3028
lwrist 8.65155
lhand -12.3534 -4.79092
lfingers 7.12502
lthumb 13.7164 24.737
rfemur -23.4222 -5.39769 16.3084
rtibia 29.42
rfoot 1.23517 -15.7568
rtoes -2.60191
lfemur 6.09169 -8.46863 -18.9169
ltibia 30.6043
lfoot 15.4082 -4.66782
ltoes -28.2079
1196
root 1.41045 18.1703 37.5843 5.02122 11.7921 4.74571
lowerback 2.66269 1.94019 -2.67422
upperback -3.05207 2.42248 -1.09365
thorax -4.71008 1.27668 0.202436
lowerneck -16.0246 -3.04752 -1.04334
upperneck 25.088 -3.55048 -1.55196
head 10.7068 -1.89172 -0.866964
rclavicle -1.39336e-014 2.5842e-015
rhumerus -43.0931 -15.429 -73.7658
rradius 33.8722
rwrist -9.44069
rhand -17.4269 -3.01401
rfingers 7.12502
rthumb 8.8234 -32.8096
lclavicle -1.39336e-014 2.5842e-015
lhumerus -41.3094 -7.78575 89.7714
lradius 30.588
lwrist 9.00312
lhand -12.2025 -4.33708
lfingers 7.12502
lthumb 13.8619 25.181
rfemur -23.1488 -5.44306 16.3898
rtibia 29.4296
rfoot 0.987098 -15.807
rtoes -2.4581
lfemur 5.33691 -8.27232 -18.8157
ltibia 32.0209
lfoot 16.3121 -4.71505
ltoes -26.9522
1197
root 1.38494 18.1788 37.6693 5.04667 11.8524 4.80652
lowerback 2.63178 1.92955 -2.74715
upperback -3.08381 2.40702 -1.05063
thorax -4.73041 1.27276 0.288847
lowerneck -15.9417 -3.09151 -1.10461
upperneck 25.0794 -3.61015 -1.50428
head 10.6897 -1.91899 -0.846077
rclavicle 7.41715e-015 9.93923e-016
rhumerus -43.0289 -15.3313 -73.5968
rradius 34.0757
rwrist -9.67291
rhand -17.5015 -3.05982
rfingers 7.12502
rthumb 8.75143 -32.8584
lclavicle 7.41715e-015 9.93923e-016
lhumerus -41.2149 -8.02499 90.1167
lradius 30.9207
lwrist 9.34668
lhand -11.9985 -3.85202
lfingers 7.12502
lthumb 14.0584 25.6525
rfemur -22.8694 -5.45422 16.4578
rtibia 29.4428
rfoot 0.714303 -15.8895
rtoes -2.33018
lfemur 4.5862 -8.05085 -18.7339
ltibia 33.4403
lfoot 17.2488 -4.71145
ltoes -25.3777
1198
root 1.35953 18.1872 37.754 5.06354 11.8918 4.90413
lowerback 2.5581 1.94455 -2.82767
upperback -3.03324 2.42725 -1.04492
thorax -4.64018 1.28457 0.342291
lowerneck -16.0576 -3.16235 -1.18352
upperneck 25.1057 -3.71482 -1.40311
head 10.7258 -1.96167 -0.813946
rclavicle 5.00999e-014 -2.78299e-015
rhumerus -42.8308 -15.367 -73.4478
rradius 34.2371
rwrist -9.85895
rhand -17.5914 -3.07085
rfingers 7.12502
rthumb 8.6647 -32.873
lclavicle 5.00999e-014 -2.78299e-015
lhumerus -40.9615 -8.35255 90.4425
lradius 31.2571
lwrist 9.66864
lhand -11.8112 -3.42078
lfingers 7.12502
lthumb 14.2389 26.0711
rfemur -22.5737 -5.44288 16.4813
rtibia 29.4489
rfoot 0.440079 -15.9882
rtoes -2.23569
lfemur 3.84418 -7.80671 -18.7048
ltibia 34.8721
lfoot 18.1879 -4.67565
ltoes -23.308
1199
root 1.33468 18.1964 37.8335 5.07885 11.9329 4.90669
lowerback 2.50444 1.97066 -2.76758
upperback -2.9933 2.46786 -1.04436
thorax -4.56642 1.30185 0.30976
lowerneck -16.1658 -3.24205 -1.24626
upperneck 25.1368 -3.84387 -1.27578
head 10.7625 -2.01056 -0.778528
rclavicle 3.15384e-014 1.59028e-014
rhumerus -42.6241 -15.4699 -73.3027
rradius 34.3603
rwrist -9.98294
rhand -17.6712 -3.07487
rfingers 7.12502
rthumb 8.5877 -32.8802
lclavicle 3.15384e-014 1.59028e-014
lhumerus -40.711 -8.73755 90.7458
lradius 31.6199
lwrist 9.92074
lhand -11.6599 -3.11761
lfingers 7.12502
lthumb 14.3848 26.364
rfemur -22.3023 -5.42457 16.6077
rtibia 29.4302
rfoot 0.199679 -16.096
rtoes -2.1852
lfemur 3.04034 -7.54972 -18.5765
ltibia 36.3408
lfoot 19.1143 -4.60657
ltoes -21.3711
